<svg width="24" height="24" viewBox="0 0 24 24" fill="none" xmlns="http://www.w3.org/2000/svg">
  <circle cx="5.5" cy="2" r="2" fill="#F37726"/>
  <circle cx="2" cy="21.5" r="2" fill="#9F9F9F"/>  
  <circle cx="21.5" cy="21.5" r="2.5" fill="#F37726"/>
  <path d="M12 4C7.6 4 4 7.6 4 12s3.6 8 8 8 8-3.6 8-8-3.6-8-8-8zm0 14c-3.3 0-6-2.7-6-6s2.7-6 6-6 6 2.7 6 6-2.7 6-6 6z" fill="#9F9F9F"/>
  <path d="M12 6.5c-3 0-5.5 2.5-5.5 5.5s2.5 5.5 5.5 5.5 5.5-2.5 5.5-5.5S15 6.5 12 6.5zm0 9c-1.9 0-3.5-1.6-3.5-3.5S10.1 8.5 12 8.5s3.5 1.6 3.5 3.5S13.9 15.5 12 15.5z" fill="#767677"/>
</svg>