<svg width="24" height="24" viewBox="0 0 24 24" fill="none" xmlns="http://www.w3.org/2000/svg">
  <path fill-rule="evenodd" clip-rule="evenodd" d="M12.1 0C5.4 0 6.1 2.6 6.1 2.6L6.1 5.5h6.1v0.9H4.7c0 0-4.1-0.5-4.1 6.1s3.6 5.9 3.6 5.9h2.1V15.8c0 0-0.1-3.6 3.5-3.6h6.1c0 0 3.4 0.1 3.4-3.3V3.3c0 0 0.5-3.3-5.7-3.3h-1.5zM8.7 2.3c0.6 0 1.1 0.5 1.1 1.1s-0.5 1.1-1.1 1.1-1.1-0.5-1.1-1.1 0.5-1.1 1.1-1.1z" fill="#306998"/>
  <path fill-rule="evenodd" clip-rule="evenodd" d="M11.9 24c6.7 0 5.9-2.6 5.9-2.6L17.9 18.5h-6.1v-0.9h7.5c0 0 4.1 0.5 4.1-6.1s-3.6-5.9-3.6-5.9h-2.1v2.6c0 0 0.1 3.6-3.5 3.6H7.1c0 0-3.4-0.1-3.4 3.3v6.6c0 0-0.5 3.3 5.7 3.3h2.5zM15.3 21.7c-0.6 0-1.1-0.5-1.1-1.1s0.5-1.1 1.1-1.1 1.1 0.5 1.1 1.1-0.5 1.1-1.1 1.1z" fill="#FFD43B"/>
</svg>