<svg width="47" height="36" viewBox="0 0 47 36" fill="none" xmlns="http://www.w3.org/2000/svg">
<path fill-rule="evenodd" clip-rule="evenodd" d="M0 10.8C0 6.94044 0 5.01066 0.780431 3.54713C1.41023 2.36608 2.38298 1.40023 3.57247 0.774896C5.04645 0 6.99001 0 10.8771 0H36.1229C40.01 0 41.9536 0 43.4275 0.774896C44.617 1.40023 45.5898 2.36608 46.2196 3.54713C47 5.01066 47 6.94044 47 10.8V24.7315C46.8893 24.2291 46.69 23.7689 46.4021 23.3507C45.9491 22.6926 45.3149 22.1788 44.4994 21.8095C43.6888 21.4402 42.7398 21.2555 41.6525 21.2555C40.5844 21.2555 39.6306 21.4402 38.7913 21.8095C37.952 22.1788 37.2916 22.6926 36.81 23.3507C36.3331 24.0088 36.097 24.7783 36.1018 25.6589C36.097 26.7338 36.4523 27.5884 37.1676 28.2229C37.8829 28.8573 38.8581 29.3237 40.0932 29.622L41.6883 30.0197C42.2224 30.1476 42.673 30.2896 43.0402 30.4459C43.4122 30.6021 43.6935 30.7915 43.8843 31.0141C44.0798 31.2366 44.1775 31.5112 44.1775 31.8379C44.1775 32.1883 44.0703 32.4984 43.8557 32.7683C43.6411 33.0382 43.3383 33.2489 42.9472 33.4004C42.561 33.5519 42.1056 33.6277 41.581 33.6277C41.0469 33.6277 40.5677 33.5472 40.1433 33.3862C39.7236 33.2205 39.3874 32.9767 39.1347 32.6547C38.8867 32.328 38.746 31.9208 38.7127 31.4331H35.7155C35.7394 32.4795 35.9945 33.3578 36.4809 34.068C36.9721 34.7735 37.654 35.3062 38.5267 35.666C38.8237 35.7878 39.1381 35.889 39.4701 35.9696C38.5402 36 37.4437 36 36.1229 36H10.8771C6.99001 36 5.04645 36 3.57247 35.2251C2.38298 34.5998 1.41023 33.6339 0.780431 32.4529C0 30.9893 0 29.0596 0 25.2V10.8ZM4.02857 8C4.02857 5.79086 5.83222 4 8.05714 4H10.7429C12.9678 4 14.7714 5.79086 14.7714 8V10.6667C14.7714 12.8758 12.9678 14.6667 10.7429 14.6667H8.05714C5.83222 14.6667 4.02857 12.8758 4.02857 10.6667V8Z" fill="url(#paint0_linear_42_42)"/>
<path fill-rule="evenodd" clip-rule="evenodd" d="M0 10.8C0 6.94044 0 5.01066 0.780431 3.54713C1.41023 2.36608 2.38298 1.40023 3.57247 0.774896C5.04645 0 6.99001 0 10.8771 0H36.1229C40.01 0 41.9536 0 43.4275 0.774896C44.617 1.40023 45.5898 2.36608 46.2196 3.54713C47 5.01066 47 6.94044 47 10.8V24.7315C46.8893 24.2291 46.69 23.7689 46.4021 23.3507C45.9491 22.6926 45.3149 22.1788 44.4994 21.8095C43.6888 21.4402 42.7398 21.2555 41.6525 21.2555C40.5844 21.2555 39.6306 21.4402 38.7913 21.8095C37.952 22.1788 37.2916 22.6926 36.81 23.3507C36.3331 24.0088 36.097 24.7783 36.1018 25.6589C36.097 26.7338 36.4523 27.5884 37.1676 28.2229C37.8829 28.8573 38.8581 29.3237 40.0932 29.622L41.6883 30.0197C42.2224 30.1476 42.673 30.2896 43.0402 30.4459C43.4122 30.6021 43.6935 30.7915 43.8843 31.0141C44.0798 31.2366 44.1775 31.5112 44.1775 31.8379C44.1775 32.1883 44.0703 32.4984 43.8557 32.7683C43.6411 33.0382 43.3383 33.2489 42.9472 33.4004C42.561 33.5519 42.1056 33.6277 41.581 33.6277C41.0469 33.6277 40.5677 33.5472 40.1433 33.3862C39.7236 33.2205 39.3874 32.9767 39.1347 32.6547C38.8867 32.328 38.746 31.9208 38.7127 31.4331H35.7155C35.7394 32.4795 35.9945 33.3578 36.4809 34.068C36.9721 34.7735 37.654 35.3062 38.5267 35.666C38.8237 35.7878 39.1381 35.889 39.4701 35.9696C38.5402 36 37.4437 36 36.1229 36H10.8771C6.99001 36 5.04645 36 3.57247 35.2251C2.38298 34.5998 1.41023 33.6339 0.780431 32.4529C0 30.9893 0 29.0596 0 25.2V10.8ZM4.02857 8C4.02857 5.79086 5.83222 4 8.05714 4H10.7429C12.9678 4 14.7714 5.79086 14.7714 8V10.6667C14.7714 12.8758 12.9678 14.6667 10.7429 14.6667H8.05714C5.83222 14.6667 4.02857 12.8758 4.02857 10.6667V8Z" fill="black" fill-opacity="0.2"/>
<path d="M46.8723 30.0404C46.991 28.9288 46.9994 27.5253 47 25.6376H44.1346C44.0774 25.0647 43.8318 24.6196 43.3979 24.3024C42.9639 23.9852 42.375 23.8266 41.6311 23.8266C41.1256 23.8266 40.6988 23.8976 40.3507 24.0396C40.0026 24.1769 39.7355 24.3687 39.5496 24.6149C39.3683 24.8611 39.2777 25.1405 39.2777 25.453C39.2682 25.7134 39.323 25.9407 39.4423 26.1348C39.5662 26.3289 39.7355 26.497 39.9501 26.6391C40.1647 26.7764 40.4127 26.8971 40.694 27.0013C40.9754 27.1007 41.2758 27.1859 41.5953 27.257L42.9115 27.5695C43.5505 27.7115 44.137 27.9009 44.6711 28.1376C45.2052 28.3744 45.6678 28.6656 46.0588 29.0112C46.3953 29.3087 46.6665 29.6517 46.8723 30.0404Z" fill="url(#paint1_linear_42_42)"/>
<path d="M46.8723 30.0404C46.991 28.9288 46.9994 27.5253 47 25.6376H44.1346C44.0774 25.0647 43.8318 24.6196 43.3979 24.3024C42.9639 23.9852 42.375 23.8266 41.6311 23.8266C41.1256 23.8266 40.6988 23.8976 40.3507 24.0396C40.0026 24.1769 39.7355 24.3687 39.5496 24.6149C39.3683 24.8611 39.2777 25.1405 39.2777 25.453C39.2682 25.7134 39.323 25.9407 39.4423 26.1348C39.5662 26.3289 39.7355 26.497 39.9501 26.6391C40.1647 26.7764 40.4127 26.8971 40.694 27.0013C40.9754 27.1007 41.2758 27.1859 41.5953 27.257L42.9115 27.5695C43.5505 27.7115 44.137 27.9009 44.6711 28.1376C45.2052 28.3744 45.6678 28.6656 46.0588 29.0112C46.3953 29.3087 46.6665 29.6517 46.8723 30.0404Z" fill="black" fill-opacity="0.2"/>
<defs>
<linearGradient id="paint0_linear_42_42" x1="6.63503" y1="7.05302e-08" x2="30.9511" y2="41.514" gradientUnits="userSpaceOnUse">
<stop stop-color="#DDE1EB"/>
<stop offset="1" stop-color="#878587"/>
</linearGradient>
<linearGradient id="paint1_linear_42_42" x1="6.63503" y1="7.05302e-08" x2="30.9511" y2="41.514" gradientUnits="userSpaceOnUse">
<stop stop-color="#DDE1EB"/>
<stop offset="1" stop-color="#878587"/>
</linearGradient>
</defs>
</svg>
